<svg xmlns="http://www.w3.org/2000/svg" viewBox="0 0 900 550" width="100%" height="100%" class="rebus-svg">
  <defs>
    <linearGradient id="bgGrad" x1="0%" y1="0%" x2="100%" y2="100%">
      <stop offset="0%" stop-color="#18181b"/>
      <stop offset="100%" stop-color="#09090b"/>
    </linearGradient>
    <linearGradient id="cardGrad" x1="0%" y1="0%" x2="0%" y2="100%">
      <stop offset="0%" stop-color="#27272a"/>
      <stop offset="100%" stop-color="#18181b"/>
    </linearGradient>
    <linearGradient id="goldGrad" x1="0%" y1="0%" x2="100%" y2="100%">
      <stop offset="0%" stop-color="#fbbf24"/>
      <stop offset="100%" stop-color="#d97706"/>
    </linearGradient>
    <linearGradient id="blueGrad" x1="0%" y1="0%" x2="100%" y2="100%">
      <stop offset="0%" stop-color="#60a5fa"/>
      <stop offset="100%" stop-color="#2563eb"/>
    </linearGradient>
    <linearGradient id="redGrad" x1="0%" y1="0%" x2="100%" y2="100%">
      <stop offset="0%" stop-color="#f87171"/>
      <stop offset="100%" stop-color="#dc2626"/>
    </linearGradient>
    <linearGradient id="greenGrad" x1="0%" y1="0%" x2="100%" y2="100%">
      <stop offset="0%" stop-color="#34d399"/>
      <stop offset="100%" stop-color="#059669"/>
    </linearGradient>
    <filter id="shadow" x="-20%" y="-20%" width="140%" height="140%">
      <feDropShadow dx="0" dy="6" stdDeviation="8" flood-color="#000" flood-opacity="0.6"/>
    </filter>
  </defs>

  <!-- Background Canvas -->
  <rect width="900" height="550" rx="24" fill="url(#bgGrad)" stroke="#3f3f46" stroke-width="3"/>
  <rect x="15" y="15" width="870" height="520" rx="18" fill="none" stroke="#27272a" stroke-width="1.5" stroke-dasharray="6 6"/>

  <!-- Content Graphics Area -->
  
  <!-- Life Tree (חיים) -->
  <g transform="translate(180, 250)" filter="url(#shadow)">
    <circle cx="0" cy="-10" r="60" fill="url(#greenGrad)"/>
    <rect x="-10" y="25" width="20" height="45" fill="#78350f" rx="4"/>
    <text x="0" y="125" font-family="system-ui, sans-serif" font-size="28" font-weight="900" fill="#4ade80" text-anchor="middle">חַיִּים (עץ)</text>
  </g>

  <!-- Skull / Death (ומוות) -->
  <g transform="translate(360, 250)" filter="url(#shadow)">
    <circle cx="0" cy="-15" r="45" fill="#f8fafc"/>
    <rect x="-25" y="10" width="50" height="35" rx="6" fill="#f8fafc"/>
    <!-- Eye sockets -->
    <circle cx="-16" cy="-15" r="14" fill="#000000"/>
    <circle cx="16" cy="-15" r="14" fill="#000000"/>
    <!-- Teeth -->
    <line x1="-15" y1="30" x2="-15" y2="45" stroke="#000000" stroke-width="4"/>
    <line x1="0" y1="30" x2="0" y2="45" stroke="#000000" stroke-width="4"/>
    <line x1="15" y1="30" x2="15" y2="45" stroke="#000000" stroke-width="4"/>
    <text x="0" y="125" font-family="system-ui, sans-serif" font-size="28" font-weight="900" fill="#f87171" text-anchor="middle">וָמָוֶת</text>
  </g>

  <!-- Equal / In Hand of Tongue -->
  <g transform="translate(640, 250)" filter="url(#shadow)">
    <!-- Hand -->
    <path d="M-60,70 L-60,20 C-60,-20 -30,-40 0,-10 C30,-40 60,-20 60,20 L60,70 Z" fill="#fbcfe8" stroke="#f472b6" stroke-width="4"/>
    <!-- Tongue resting in hand -->
    <path d="M-25,10 C-25,-30 25,-30 25,10 C25,45 -25,45 -25,10 Z" fill="#e11d48"/>
    <line x1="0" y1="-15" x2="0" y2="25" stroke="#991b1b" stroke-width="4"/>
    <text x="0" y="125" font-family="system-ui, sans-serif" font-size="28" font-weight="900" fill="#fb7185" text-anchor="middle">בְּיַד לָשׁוֹן</text>
  </g>

</svg>