<svg xmlns="http://www.w3.org/2000/svg" viewBox="0 0 900 550" width="100%" height="100%" class="rebus-svg">
  <defs>
    <linearGradient id="bgGrad" x1="0%" y1="0%" x2="100%" y2="100%">
      <stop offset="0%" stop-color="#18181b"/>
      <stop offset="100%" stop-color="#09090b"/>
    </linearGradient>
    <linearGradient id="cardGrad" x1="0%" y1="0%" x2="0%" y2="100%">
      <stop offset="0%" stop-color="#27272a"/>
      <stop offset="100%" stop-color="#18181b"/>
    </linearGradient>
    <linearGradient id="goldGrad" x1="0%" y1="0%" x2="100%" y2="100%">
      <stop offset="0%" stop-color="#fbbf24"/>
      <stop offset="100%" stop-color="#d97706"/>
    </linearGradient>
    <linearGradient id="blueGrad" x1="0%" y1="0%" x2="100%" y2="100%">
      <stop offset="0%" stop-color="#60a5fa"/>
      <stop offset="100%" stop-color="#2563eb"/>
    </linearGradient>
    <linearGradient id="redGrad" x1="0%" y1="0%" x2="100%" y2="100%">
      <stop offset="0%" stop-color="#f87171"/>
      <stop offset="100%" stop-color="#dc2626"/>
    </linearGradient>
    <linearGradient id="greenGrad" x1="0%" y1="0%" x2="100%" y2="100%">
      <stop offset="0%" stop-color="#34d399"/>
      <stop offset="100%" stop-color="#059669"/>
    </linearGradient>
    <filter id="shadow" x="-20%" y="-20%" width="140%" height="140%">
      <feDropShadow dx="0" dy="6" stdDeviation="8" flood-color="#000" flood-opacity="0.6"/>
    </filter>
  </defs>

  <!-- Background Canvas -->
  <rect width="900" height="550" rx="24" fill="url(#bgGrad)" stroke="#3f3f46" stroke-width="3"/>
  <rect x="15" y="15" width="870" height="520" rx="18" fill="none" stroke="#27272a" stroke-width="1.5" stroke-dasharray="6 6"/>

  <!-- Content Graphics Area -->
  
  <!-- Public Phone Slot with falling Asimon (אסימון) -->
  <g transform="translate(640, 260)" filter="url(#shadow)">
    <!-- Orange Public Phone box -->
    <rect x="-90" y="-90" width="180" height="180" rx="20" fill="#ea580c" stroke="#c2410c" stroke-width="4"/>
    <!-- Coin slot -->
    <rect x="-40" y="-20" width="80" height="14" rx="7" fill="#000000"/>

    <!-- Asimon coin falling down -->
    <circle cx="0" cy="-45" r="38" fill="url(#goldGrad)" stroke="#78350f" stroke-width="3"/>
    <!-- Hole in the middle of Asimon -->
    <circle cx="0" cy="-45" r="12" fill="#ea580c" stroke="#78350f" stroke-width="2"/>
    <!-- Arrow down -->
    <line x1="0" y1="20" x2="0" y2="60" stroke="#fef08a" stroke-width="8" stroke-linecap="round"/>
    <polygon points="-12,50 0,68 12,50" fill="#fef08a"/>
  </g>

  <text x="450" y="275" font-family="system-ui, sans-serif" font-size="64" font-weight="900" fill="#fbbf24" text-anchor="middle">⟵</text>

  <!-- Glowing Lightbulb Idea (הבנה פתאומית) -->
  <g transform="translate(260, 260)" filter="url(#shadow)">
    <!-- Rays -->
    <line x1="0" y1="-80" x2="0" y2="-105" stroke="#facc15" stroke-width="8" stroke-linecap="round"/>
    <line x1="-60" y1="-60" x2="-80" y2="-80" stroke="#facc15" stroke-width="8" stroke-linecap="round"/>
    <line x1="60" y1="-60" x2="80" y2="-80" stroke="#facc15" stroke-width="8" stroke-linecap="round"/>
    <!-- Bulb -->
    <circle cx="0" cy="-20" r="55" fill="url(#goldGrad)"/>
    <path d="M-30,15 L30,15 L20,45 L-20,45 Z" fill="#94a3b8"/>
    <ellipse cx="0" cy="50" rx="15" ry="6" fill="#64748b"/>
  </g>

</svg>