<svg xmlns="http://www.w3.org/2000/svg" viewBox="0 0 900 550" width="100%" height="100%" class="rebus-svg">
  <defs>
    <linearGradient id="bgGrad" x1="0%" y1="0%" x2="100%" y2="100%">
      <stop offset="0%" stop-color="#18181b"/>
      <stop offset="100%" stop-color="#09090b"/>
    </linearGradient>
    <linearGradient id="cardGrad" x1="0%" y1="0%" x2="0%" y2="100%">
      <stop offset="0%" stop-color="#27272a"/>
      <stop offset="100%" stop-color="#18181b"/>
    </linearGradient>
    <linearGradient id="goldGrad" x1="0%" y1="0%" x2="100%" y2="100%">
      <stop offset="0%" stop-color="#fbbf24"/>
      <stop offset="100%" stop-color="#d97706"/>
    </linearGradient>
    <linearGradient id="blueGrad" x1="0%" y1="0%" x2="100%" y2="100%">
      <stop offset="0%" stop-color="#60a5fa"/>
      <stop offset="100%" stop-color="#2563eb"/>
    </linearGradient>
    <linearGradient id="redGrad" x1="0%" y1="0%" x2="100%" y2="100%">
      <stop offset="0%" stop-color="#f87171"/>
      <stop offset="100%" stop-color="#dc2626"/>
    </linearGradient>
    <linearGradient id="greenGrad" x1="0%" y1="0%" x2="100%" y2="100%">
      <stop offset="0%" stop-color="#34d399"/>
      <stop offset="100%" stop-color="#059669"/>
    </linearGradient>
    <filter id="shadow" x="-20%" y="-20%" width="140%" height="140%">
      <feDropShadow dx="0" dy="6" stdDeviation="8" flood-color="#000" flood-opacity="0.6"/>
    </filter>
  </defs>

  <!-- Background Canvas -->
  <rect width="900" height="550" rx="24" fill="url(#bgGrad)" stroke="#3f3f46" stroke-width="3"/>
  <rect x="15" y="15" width="870" height="520" rx="18" fill="none" stroke="#27272a" stroke-width="1.5" stroke-dasharray="6 6"/>

  <!-- Content Graphics Area -->
  
  <!-- Human Head Profile (ראש) -->
  <g transform="translate(260, 260)" filter="url(#shadow)">
    <circle cx="0" cy="-10" r="60" fill="url(#cardGrad)" stroke="#38bdf8" stroke-width="4"/>
    <circle cx="0" cy="-25" r="30" fill="#38bdf8"/>
    <!-- Kova Tembel hat -->
    <ellipse cx="0" cy="-45" rx="42" ry="12" fill="#f59e0b"/>
    <path d="M-30,-45 C-30,-75 30,-75 30,-45 Z" fill="#b45309"/>
    <text x="0" y="135" font-family="system-ui, sans-serif" font-size="32" font-weight="900" fill="#38bdf8" text-anchor="middle">רֹאשׁ</text>
  </g>

  <text x="450" y="275" font-family="system-ui, sans-serif" font-size="64" font-weight="900" fill="#fbbf24" text-anchor="middle">+</text>

  <!-- Corner of 2 Walls (פינה) -->
  <g transform="translate(640, 260)" filter="url(#shadow)">
    <!-- 3D Room Corner -->
    <polygon points="-80,-60 0,0 0,70 -80,10" fill="#334155"/>
    <polygon points="80,-60 0,0 0,70 80,10" fill="#1e293b"/>
    <line x1="0" y1="0" x2="0" y2="70" stroke="#38bdf8" stroke-width="6"/>
    <!-- Red arrow pointing to corner -->
    <line x1="50" y1="-30" x2="10" y2="-5" stroke="#ef4444" stroke-width="10" stroke-linecap="round"/>
    <polygon points="5,-15 0,0 15,5" fill="#ef4444"/>
    <text x="0" y="135" font-family="system-ui, sans-serif" font-size="32" font-weight="900" fill="#f87171" text-anchor="middle">פִּנָּה</text>
  </g>

</svg>