<svg xmlns="http://www.w3.org/2000/svg" viewBox="0 0 900 550" width="100%" height="100%" class="rebus-svg">
  <defs>
    <linearGradient id="bgGrad" x1="0%" y1="0%" x2="100%" y2="100%">
      <stop offset="0%" stop-color="#18181b"/>
      <stop offset="100%" stop-color="#09090b"/>
    </linearGradient>
    <linearGradient id="cardGrad" x1="0%" y1="0%" x2="0%" y2="100%">
      <stop offset="0%" stop-color="#27272a"/>
      <stop offset="100%" stop-color="#18181b"/>
    </linearGradient>
    <linearGradient id="goldGrad" x1="0%" y1="0%" x2="100%" y2="100%">
      <stop offset="0%" stop-color="#fbbf24"/>
      <stop offset="100%" stop-color="#d97706"/>
    </linearGradient>
    <linearGradient id="blueGrad" x1="0%" y1="0%" x2="100%" y2="100%">
      <stop offset="0%" stop-color="#60a5fa"/>
      <stop offset="100%" stop-color="#2563eb"/>
    </linearGradient>
    <linearGradient id="redGrad" x1="0%" y1="0%" x2="100%" y2="100%">
      <stop offset="0%" stop-color="#f87171"/>
      <stop offset="100%" stop-color="#dc2626"/>
    </linearGradient>
    <linearGradient id="greenGrad" x1="0%" y1="0%" x2="100%" y2="100%">
      <stop offset="0%" stop-color="#34d399"/>
      <stop offset="100%" stop-color="#059669"/>
    </linearGradient>
    <filter id="shadow" x="-20%" y="-20%" width="140%" height="140%">
      <feDropShadow dx="0" dy="6" stdDeviation="8" flood-color="#000" flood-opacity="0.6"/>
    </filter>
  </defs>

  <!-- Background Canvas -->
  <rect width="900" height="550" rx="24" fill="url(#bgGrad)" stroke="#3f3f46" stroke-width="3"/>
  <rect x="15" y="15" width="870" height="520" rx="18" fill="none" stroke="#27272a" stroke-width="1.5" stroke-dasharray="6 6"/>

  <!-- Content Graphics Area -->
  
  <!-- Fruit Basket / Tene (ביכורי) -->
  <g transform="translate(180, 250)" filter="url(#shadow)">
    <path d="M-60,0 L60,0 L45,65 L-45,65 Z" fill="#b45309" stroke="#78350f" stroke-width="4"/>
    <!-- Basket handle -->
    <path d="M-45,0 C-45,-45 45,-45 45,0" stroke="#b45309" stroke-width="8" fill="none"/>
    <!-- Pomegranate & Grapes -->
    <circle cx="-15" cy="-8" r="18" fill="#dc2626"/>
    <circle cx="15" cy="-8" r="14" fill="#7e22ce"/>
  </g>

  <text x="340" y="270" font-family="system-ui, sans-serif" font-size="64" font-weight="900" fill="#fbbf24" text-anchor="middle">+</text>

  <!-- Sickle / Harvest (קציר) -->
  <g transform="translate(480, 250)" filter="url(#shadow)">
    <!-- Sickle handle -->
    <rect x="-8" y="25" width="16" height="50" rx="4" fill="#92400e"/>
    <!-- Curved blade -->
    <path d="M0,25 C45,25 70,-45 10,-65 C-20,-75 25,-40 0,15" fill="#e2e8f0" stroke="#94a3b8" stroke-width="3"/>
  </g>

  <text x="620" y="270" font-family="system-ui, sans-serif" font-size="64" font-weight="900" fill="#fbbf24" text-anchor="middle">+</text>

  <!-- Wheat Spike (חיטים) -->
  <g transform="translate(740, 250)" filter="url(#shadow)">
    <line x1="0" y1="75" x2="0" y2="-50" stroke="#f59e0b" stroke-width="8" stroke-linecap="round"/>
    <ellipse cx="-15" cy="-30" rx="14" ry="7" fill="#fbbf24" transform="rotate(-30 -15 -30)"/>
    <ellipse cx="15" cy="-30" rx="14" ry="7" fill="#fbbf24" transform="rotate(30 15 -30)"/>
    <ellipse cx="-15" cy="-5" rx="14" ry="7" fill="#fbbf24" transform="rotate(-30 -15 -5)"/>
    <ellipse cx="15" cy="-5" rx="14" ry="7" fill="#fbbf24" transform="rotate(30 15 -5)"/>
    <ellipse cx="0" cy="-55" rx="8" ry="16" fill="#fde047"/>
  </g>

</svg>