<svg xmlns="http://www.w3.org/2000/svg" viewBox="0 0 900 550" width="100%" height="100%" class="rebus-svg">
  <defs>
    <linearGradient id="bgGrad" x1="0%" y1="0%" x2="100%" y2="100%">
      <stop offset="0%" stop-color="#18181b"/>
      <stop offset="100%" stop-color="#09090b"/>
    </linearGradient>
    <linearGradient id="cardGrad" x1="0%" y1="0%" x2="0%" y2="100%">
      <stop offset="0%" stop-color="#27272a"/>
      <stop offset="100%" stop-color="#18181b"/>
    </linearGradient>
    <linearGradient id="goldGrad" x1="0%" y1="0%" x2="100%" y2="100%">
      <stop offset="0%" stop-color="#fbbf24"/>
      <stop offset="100%" stop-color="#d97706"/>
    </linearGradient>
    <linearGradient id="blueGrad" x1="0%" y1="0%" x2="100%" y2="100%">
      <stop offset="0%" stop-color="#60a5fa"/>
      <stop offset="100%" stop-color="#2563eb"/>
    </linearGradient>
    <linearGradient id="cyanGrad" x1="0%" y1="0%" x2="100%" y2="100%">
      <stop offset="0%" stop-color="#38bdf8"/>
      <stop offset="100%" stop-color="#0284c7"/>
    </linearGradient>
    <linearGradient id="redGrad" x1="0%" y1="0%" x2="100%" y2="100%">
      <stop offset="0%" stop-color="#f87171"/>
      <stop offset="100%" stop-color="#dc2626"/>
    </linearGradient>
    <linearGradient id="greenGrad" x1="0%" y1="0%" x2="100%" y2="100%">
      <stop offset="0%" stop-color="#34d399"/>
      <stop offset="100%" stop-color="#059669"/>
    </linearGradient>
    <linearGradient id="purpleGrad" x1="0%" y1="0%" x2="100%" y2="100%">
      <stop offset="0%" stop-color="#c084fc"/>
      <stop offset="100%" stop-color="#7e22ce"/>
    </linearGradient>
    <filter id="shadow" x="-20%" y="-20%" width="140%" height="140%">
      <feDropShadow dx="0" dy="6" stdDeviation="8" flood-color="#000" flood-opacity="0.6"/>
    </filter>
  </defs>

  <!-- Background Canvas -->
  <rect width="900" height="550" rx="24" fill="url(#bgGrad)" stroke="#3f3f46" stroke-width="3"/>
  <rect x="15" y="15" width="870" height="520" rx="18" fill="none" stroke="#27272a" stroke-width="1.5" stroke-dasharray="6 6"/>

  <!-- Content Graphics Area -->
  
    <g transform="translate(280, 260)" filter="url(#shadow)">
      
        <rect x="-30" y="-60" width="60" height="90" rx="8" fill="#94a3b8" stroke="#475569" stroke-width="4"/>
        <rect x="-20" y="-50" width="40" height="70" fill="#cbd5e1"/>
        <circle cx="-10" cy="-35" r="3" fill="#334155"/>
        <circle cx="10" cy="-35" r="3" fill="#334155"/>
        <circle cx="0" cy="-20" r="3" fill="#334155"/>
        <circle cx="-10" cy="-5" r="3" fill="#334155"/>
        <circle cx="10" cy="-5" r="3" fill="#334155"/>
        <ellipse cx="40" cy="35" rx="32" ry="24" fill="#a16207" transform="rotate(15 40 35)"/>
        <ellipse cx="-40" cy="40" rx="28" ry="20" fill="#b45309" transform="rotate(-15 -40 40)"/>
      
    </g>
<text x="450" y="275" font-family="system-ui, sans-serif" font-size="64" font-weight="900" fill="#fbbf24" text-anchor="middle">+</text>

    <g transform="translate(620, 260)" filter="url(#shadow)">
      
        <circle cx="0" cy="5" r="60" fill="#334155" stroke="#0f172a" stroke-width="5"/>
        <line x1="45" y1="-40" x2="80" y2="-75" stroke="#1e293b" stroke-width="14" stroke-linecap="round"/>
        <circle cx="-20" cy="-10" r="18" fill="url(#goldGrad)" stroke="#d97706" stroke-width="3"/>
        <circle cx="20" cy="-10" r="18" fill="url(#goldGrad)" stroke="#d97706" stroke-width="3"/>
        <circle cx="0" cy="22" r="18" fill="url(#goldGrad)" stroke="#d97706" stroke-width="3"/>
      
    </g>
</svg>