<svg xmlns="http://www.w3.org/2000/svg" viewBox="0 0 900 550" width="100%" height="100%" class="rebus-svg">
  <defs>
    <linearGradient id="bgGrad" x1="0%" y1="0%" x2="100%" y2="100%">
      <stop offset="0%" stop-color="#18181b"/>
      <stop offset="100%" stop-color="#09090b"/>
    </linearGradient>
    <linearGradient id="cardGrad" x1="0%" y1="0%" x2="0%" y2="100%">
      <stop offset="0%" stop-color="#27272a"/>
      <stop offset="100%" stop-color="#18181b"/>
    </linearGradient>
    <linearGradient id="goldGrad" x1="0%" y1="0%" x2="100%" y2="100%">
      <stop offset="0%" stop-color="#fbbf24"/>
      <stop offset="100%" stop-color="#d97706"/>
    </linearGradient>
    <linearGradient id="blueGrad" x1="0%" y1="0%" x2="100%" y2="100%">
      <stop offset="0%" stop-color="#60a5fa"/>
      <stop offset="100%" stop-color="#2563eb"/>
    </linearGradient>
    <linearGradient id="cyanGrad" x1="0%" y1="0%" x2="100%" y2="100%">
      <stop offset="0%" stop-color="#38bdf8"/>
      <stop offset="100%" stop-color="#0284c7"/>
    </linearGradient>
    <linearGradient id="redGrad" x1="0%" y1="0%" x2="100%" y2="100%">
      <stop offset="0%" stop-color="#f87171"/>
      <stop offset="100%" stop-color="#dc2626"/>
    </linearGradient>
    <linearGradient id="greenGrad" x1="0%" y1="0%" x2="100%" y2="100%">
      <stop offset="0%" stop-color="#34d399"/>
      <stop offset="100%" stop-color="#059669"/>
    </linearGradient>
    <linearGradient id="purpleGrad" x1="0%" y1="0%" x2="100%" y2="100%">
      <stop offset="0%" stop-color="#c084fc"/>
      <stop offset="100%" stop-color="#7e22ce"/>
    </linearGradient>
    <filter id="shadow" x="-20%" y="-20%" width="140%" height="140%">
      <feDropShadow dx="0" dy="6" stdDeviation="8" flood-color="#000" flood-opacity="0.6"/>
    </filter>
  </defs>

  <!-- Background Canvas -->
  <rect width="900" height="550" rx="24" fill="url(#bgGrad)" stroke="#3f3f46" stroke-width="3"/>
  <rect x="15" y="15" width="870" height="520" rx="18" fill="none" stroke="#27272a" stroke-width="1.5" stroke-dasharray="6 6"/>

  <!-- Content Graphics Area -->
  
    <g transform="translate(280, 260)" filter="url(#shadow)">
      
        <g transform="translate(-56, 0)">
          <rect x="0" y="0" width="10" height="50" rx="2" fill="url(#blueGrad)"/>
          <path d="M5,-10 Q12,-3 5,0 Q-2,-3 5,-10 Z" fill="#f59e0b"/>
        </g>
        <g transform="translate(-40, 0)">
          <rect x="0" y="0" width="10" height="50" rx="2" fill="url(#blueGrad)"/>
          <path d="M5,-10 Q12,-3 5,0 Q-2,-3 5,-10 Z" fill="#f59e0b"/>
        </g>
        <g transform="translate(-24, 0)">
          <rect x="0" y="0" width="10" height="50" rx="2" fill="url(#blueGrad)"/>
          <path d="M5,-10 Q12,-3 5,0 Q-2,-3 5,-10 Z" fill="#f59e0b"/>
        </g>
        <g transform="translate(-8, 0)">
          <rect x="0" y="0" width="10" height="50" rx="2" fill="url(#blueGrad)"/>
          <path d="M5,-10 Q12,-3 5,0 Q-2,-3 5,-10 Z" fill="#f59e0b"/>
        </g>
        <g transform="translate(8, 0)">
          <rect x="0" y="0" width="10" height="50" rx="2" fill="url(#blueGrad)"/>
          <path d="M5,-10 Q12,-3 5,0 Q-2,-3 5,-10 Z" fill="#f59e0b"/>
        </g>
        <g transform="translate(24, 0)">
          <rect x="0" y="0" width="10" height="50" rx="2" fill="url(#blueGrad)"/>
          <path d="M5,-10 Q12,-3 5,0 Q-2,-3 5,-10 Z" fill="#f59e0b"/>
        </g>
        <g transform="translate(40, 0)">
          <rect x="0" y="0" width="10" height="50" rx="2" fill="url(#blueGrad)"/>
          <path d="M5,-10 Q12,-3 5,0 Q-2,-3 5,-10 Z" fill="#f59e0b"/>
        </g>
        <g transform="translate(56, 0)">
          <rect x="0" y="0" width="10" height="50" rx="2" fill="url(#blueGrad)"/>
          <path d="M5,-10 Q12,-3 5,0 Q-2,-3 5,-10 Z" fill="#f59e0b"/>
        </g>
        <rect x="-65" y="50" width="140" height="10" rx="4" fill="#64748b"/>
      
    </g>
<text x="450" y="275" font-family="system-ui, sans-serif" font-size="64" font-weight="900" fill="#fbbf24" text-anchor="middle">+</text>

    <g transform="translate(620, 260)" filter="url(#shadow)">
      
        <rect x="-60" y="-45" width="120" height="90" rx="6" fill="#f8fafc" stroke="#475569" stroke-width="3"/>
        <line x1="0" y1="-45" x2="0" y2="45" stroke="#94a3b8" stroke-width="3"/>
        <text x="-30" y="5" font-family="Rubik, sans-serif" font-size="28" font-weight="900" fill="#3b82f6" text-anchor="middle">פיוט</text>
        <text x="30" y="5" font-family="Rubik, sans-serif" font-size="28" font-weight="900" fill="#3b82f6" text-anchor="middle">שירה</text>
      
    </g>
</svg>