<svg xmlns="http://www.w3.org/2000/svg" viewBox="0 0 900 550" width="100%" height="100%" class="rebus-svg">
  <defs>
    <linearGradient id="bgGrad" x1="0%" y1="0%" x2="100%" y2="100%">
      <stop offset="0%" stop-color="#18181b"/>
      <stop offset="100%" stop-color="#09090b"/>
    </linearGradient>
    <linearGradient id="cardGrad" x1="0%" y1="0%" x2="0%" y2="100%">
      <stop offset="0%" stop-color="#27272a"/>
      <stop offset="100%" stop-color="#18181b"/>
    </linearGradient>
    <linearGradient id="goldGrad" x1="0%" y1="0%" x2="100%" y2="100%">
      <stop offset="0%" stop-color="#fbbf24"/>
      <stop offset="100%" stop-color="#d97706"/>
    </linearGradient>
    <linearGradient id="blueGrad" x1="0%" y1="0%" x2="100%" y2="100%">
      <stop offset="0%" stop-color="#60a5fa"/>
      <stop offset="100%" stop-color="#2563eb"/>
    </linearGradient>
    <linearGradient id="cyanGrad" x1="0%" y1="0%" x2="100%" y2="100%">
      <stop offset="0%" stop-color="#38bdf8"/>
      <stop offset="100%" stop-color="#0284c7"/>
    </linearGradient>
    <linearGradient id="redGrad" x1="0%" y1="0%" x2="100%" y2="100%">
      <stop offset="0%" stop-color="#f87171"/>
      <stop offset="100%" stop-color="#dc2626"/>
    </linearGradient>
    <linearGradient id="greenGrad" x1="0%" y1="0%" x2="100%" y2="100%">
      <stop offset="0%" stop-color="#34d399"/>
      <stop offset="100%" stop-color="#059669"/>
    </linearGradient>
    <linearGradient id="purpleGrad" x1="0%" y1="0%" x2="100%" y2="100%">
      <stop offset="0%" stop-color="#c084fc"/>
      <stop offset="100%" stop-color="#7e22ce"/>
    </linearGradient>
    <filter id="shadow" x="-20%" y="-20%" width="140%" height="140%">
      <feDropShadow dx="0" dy="6" stdDeviation="8" flood-color="#000" flood-opacity="0.6"/>
    </filter>
  </defs>

  <!-- Background Canvas -->
  <rect width="900" height="550" rx="24" fill="url(#bgGrad)" stroke="#3f3f46" stroke-width="3"/>
  <rect x="15" y="15" width="870" height="520" rx="18" fill="none" stroke="#27272a" stroke-width="1.5" stroke-dasharray="6 6"/>

  <!-- Content Graphics Area -->
  
    <g transform="translate(280, 260)" filter="url(#shadow)">
      
        <rect x="-60" y="-10" width="120" height="20" rx="4" fill="#78350f" stroke="#451a03" stroke-width="3"/>
        <rect x="-50" y="10" width="12" height="50" fill="#78350f"/>
        <rect x="38" y="10" width="12" height="50" fill="#78350f"/>
        <ellipse cx="0" cy="-20" rx="35" ry="12" fill="#f8fafc" stroke="#cbd5e1" stroke-width="2"/>
        <circle cx="-15" cy="-22" r="6" fill="#ef4444"/>
        <circle cx="15" cy="-22" r="7" fill="#f59e0b"/>
        <path d="M-2,-35 L2,-35 L4,-15 L-4,-15 Z" fill="#94a3b8"/>
      
    </g>
<text x="450" y="275" font-family="system-ui, sans-serif" font-size="64" font-weight="900" fill="#fbbf24" text-anchor="middle">+</text>

    <g transform="translate(620, 260)" filter="url(#shadow)">
      
        <circle cx="0" cy="5" r="55" fill="#f8fafc" stroke="#dc2626" stroke-width="8"/>
        <circle cx="0" cy="5" r="4" fill="#0f172a"/>
        <line x1="0" y1="5" x2="0" y2="-30" stroke="#0f172a" stroke-width="5" stroke-linecap="round"/>
        <line x1="0" y1="5" x2="25" y2="5" stroke="#dc2626" stroke-width="4" stroke-linecap="round"/>
        <polygon points="-15,-55 15,-55 0,-68" fill="#dc2626"/>
      
    </g>
</svg>