<svg xmlns="http://www.w3.org/2000/svg" viewBox="0 0 900 550" width="100%" height="100%" class="rebus-svg">
  <defs>
    <linearGradient id="bgGrad" x1="0%" y1="0%" x2="100%" y2="100%">
      <stop offset="0%" stop-color="#18181b"/>
      <stop offset="100%" stop-color="#09090b"/>
    </linearGradient>
    <linearGradient id="cardGrad" x1="0%" y1="0%" x2="0%" y2="100%">
      <stop offset="0%" stop-color="#27272a"/>
      <stop offset="100%" stop-color="#18181b"/>
    </linearGradient>
    <linearGradient id="goldGrad" x1="0%" y1="0%" x2="100%" y2="100%">
      <stop offset="0%" stop-color="#fbbf24"/>
      <stop offset="100%" stop-color="#d97706"/>
    </linearGradient>
    <linearGradient id="blueGrad" x1="0%" y1="0%" x2="100%" y2="100%">
      <stop offset="0%" stop-color="#60a5fa"/>
      <stop offset="100%" stop-color="#2563eb"/>
    </linearGradient>
    <linearGradient id="redGrad" x1="0%" y1="0%" x2="100%" y2="100%">
      <stop offset="0%" stop-color="#f87171"/>
      <stop offset="100%" stop-color="#dc2626"/>
    </linearGradient>
    <linearGradient id="greenGrad" x1="0%" y1="0%" x2="100%" y2="100%">
      <stop offset="0%" stop-color="#34d399"/>
      <stop offset="100%" stop-color="#059669"/>
    </linearGradient>
    <filter id="shadow" x="-20%" y="-20%" width="140%" height="140%">
      <feDropShadow dx="0" dy="6" stdDeviation="8" flood-color="#000" flood-opacity="0.6"/>
    </filter>
  </defs>

  <!-- Background Canvas -->
  <rect width="900" height="550" rx="24" fill="url(#bgGrad)" stroke="#3f3f46" stroke-width="3"/>
  <rect x="15" y="15" width="870" height="520" rx="18" fill="none" stroke="#27272a" stroke-width="1.5" stroke-dasharray="6 6"/>

  <!-- Content Graphics Area -->
  
  <!-- Tear Drop (דמי / דמעות) -->
  <g transform="translate(260, 260)" filter="url(#shadow)">
    <path d="M0,-80 C50,0 60,50 0,70 C-60,50 -50,0 0,-80 Z" fill="url(#blueGrad)"/>
    <circle cx="-15" cy="25" r="10" fill="#ffffff" opacity="0.5"/>
    <text x="0" y="145" font-family="system-ui, sans-serif" font-size="32" font-weight="900" fill="#60a5fa" text-anchor="middle">דְּמִי (דמעה)</text>
  </g>

  <text x="450" y="275" font-family="system-ui, sans-serif" font-size="64" font-weight="900" fill="#fbbf24" text-anchor="middle">+</text>

  <!-- Hanukkiah Menorah (חנוכה) -->
  <g transform="translate(640, 260)" filter="url(#shadow)">
    <line x1="-80" y1="70" x2="80" y2="70" stroke="#f59e0b" stroke-width="8" stroke-linecap="round"/>
    <line x1="0" y1="70" x2="0" y2="-50" stroke="#f59e0b" stroke-width="10"/>
    <!-- Branches -->
    <path d="M-60,-20 C-60,40 60,40 60,-20" stroke="#f59e0b" stroke-width="6" fill="none"/>
    <path d="M-40,-10 C-40,30 40,30 40,-10" stroke="#f59e0b" stroke-width="6" fill="none"/>
    <path d="M-20,0 C-20,20 20,20 20,0" stroke="#f59e0b" stroke-width="6" fill="none"/>
    <!-- Flames -->
    <circle cx="0" cy="-65" r="10" fill="#ef4444"/>
    <circle cx="0" cy="-65" r="6" fill="#fbbf24"/>
    <circle cx="-60" cy="-35" r="7" fill="#fbbf24"/>
    <circle cx="60" cy="-35" r="7" fill="#fbbf24"/>
    <circle cx="-40" cy="-25" r="7" fill="#fbbf24"/>
    <circle cx="40" cy="-25" r="7" fill="#fbbf24"/>
    <text x="0" y="145" font-family="system-ui, sans-serif" font-size="32" font-weight="900" fill="#fbbf24" text-anchor="middle">חֲנֻכָּה</text>
  </g>

</svg>